<svg id="Capa_1" data-name="Capa 1" xmlns="http://www.w3.org/2000/svg" viewBox="0 0 481.13 481.13"><defs><style>.cls-1,.cls-2{fill:none;stroke:#e8989f;stroke-miterlimit:10;}.cls-1{stroke-width:20px;}.cls-2{stroke-width:25px;}</style></defs><path class="cls-1" d="M314.89,124.51c0-10.29-28.89-7-41.5-6.92-6.12.06-12.3.53-18.13,2.84-19.43,5.72-29.28,19.69-32.87,38.75-2.33,12.36-.82,24.91-1.06,37.37-.05,2.74-.69,3.78-3.58,3.68-6-.2-12,.08-18-.11-2.82-.1-3.71.75-3.68,3.62q.21,19,0,37.95c0,3,1,3.64,3.73,3.55,5.15-.19,10.34.26,15.47-.15,4.66-.38,6.14.81,6.11,5.84-.24,38.78-.15,77.57-.1,116.35a9.61,9.61,0,0,0,6.46,8.51" transform="translate(-15.52 -6.41)"/><path class="cls-1" d="M225.37,375.94l30.43-.51c4.62.93,9.31,0,13.92.49,4.26.46,5.22-1.2,5.2-5.27q-.26-46.95-.05-93.91c0-9.28-.61-18.59.39-27.86,9.63-1.4,19.31-.2,29-.64,1.21-.05,2.42,0,3.62.07,2.13.14,2.86-.85,3.07-3.08,1.2-12.58,2.47-25.16,3.95-37.71.44-3.71-.9-4.38-4.29-4.32-10.49.21-21-.08-31.46.17-3.62.08-4.48-1.11-4.36-4.52.25-7.15,0-14.31.1-21.47.11-9,3.92-12.78,12.81-12.83,7.33,0,14.66-.23,22,.09,3.92.16,5.1-1,5-4.95-.18-11.7.13-26.06.22-37.76" transform="translate(-15.52 -6.41)"/><circle class="cls-2" cx="240.57" cy="240.57" r="228.07"/></svg>