<svg id="Capa_1" data-name="Capa 1" xmlns="http://www.w3.org/2000/svg" viewBox="0 0 481.13 481.13"><defs><style>.cls-1{fill:#e8989f;}.cls-2{fill:none;stroke:#e8989f;stroke-miterlimit:10;stroke-width:25px;}</style></defs><path class="cls-1" d="M128.66,273.74c0,1.41.06,2.82.1,4.22C125.85,276.62,126.57,275.2,128.66,273.74Z" transform="translate(-13.18 -5.25)"/><path class="cls-1" d="M128.67,223c0,1.07,0,2.15,0,3.22C126.71,225.15,126.19,224.08,128.67,223Z" transform="translate(-13.18 -5.25)"/><path class="cls-1" d="M389.31,228.24l-.09-5.22C391.91,224.72,391.33,226.47,389.31,228.24Z" transform="translate(-13.18 -5.25)"/><path class="cls-1" d="M389.16,277l.15-5.22C391.32,273.53,392,275.29,389.16,277Z" transform="translate(-13.18 -5.25)"/><path class="cls-1" d="M258.88,273.75q-13.32,6.94-26.64,13.91c-2,1-3.89,2.2-3-1.7,2.37-.63,1.65-2.6,1.65-4.12q.06-34.84,0-69.7c0-1.52.72-3.49-1.65-4.12-.72-2.77.08-3.19,2.55-1.86,9,4.83,18,9.56,27,14.33L308,247Z" transform="translate(-13.18 -5.25)"/><path class="cls-1" d="M229.27,208c2.37.63,1.65,2.6,1.65,4.12q.06,34.85,0,69.7c0,1.52.72,3.49-1.65,4.12Z" transform="translate(-13.18 -5.25)"/><circle class="cls-2" cx="240.57" cy="240.57" r="228.07"/><rect class="cls-2" x="115.09" y="154.66" width="260.94" height="180.23" rx="46.54"/></svg>